<svg width="8" height="8" viewBox="0 0 8 8" fill="none" xmlns="http://www.w3.org/2000/svg">
<path fill-rule="evenodd" clip-rule="evenodd" d="M3.99993 0.333328C4.1268 0.333328 4.24267 0.405352 4.29883 0.51912L5.25135 2.44882L7.38147 2.76017C7.50699 2.77851 7.61122 2.86652 7.65034 2.98718C7.68947 3.10785 7.65671 3.24027 7.56584 3.32878L6.02477 4.82978L6.38846 6.95031C6.40991 7.07538 6.3585 7.20177 6.25584 7.27635C6.15318 7.35092 6.01708 7.36075 5.90478 7.30169L3.99993 6.29994L2.09508 7.30169C1.98277 7.36075 1.84668 7.35092 1.74402 7.27635C1.64136 7.20177 1.58994 7.07538 1.61139 6.95031L1.97509 4.82978L0.434017 3.32878C0.343145 3.24027 0.310387 3.10785 0.349513 2.98718C0.388639 2.86652 0.492866 2.77851 0.618386 2.76017L2.74851 2.44882L3.70103 0.51912C3.75718 0.405352 3.87306 0.333328 3.99993 0.333328ZM3.99993 1.41975L3.26883 2.90087C3.22032 2.99915 3.12659 3.06731 3.01814 3.08316L1.38273 3.3222L2.56584 4.47454C2.64446 4.55112 2.68035 4.6615 2.6618 4.76968L2.38266 6.39722L3.84478 5.6283C3.94191 5.57723 4.05795 5.57723 4.15508 5.6283L5.6172 6.39722L5.33806 4.76968C5.31951 4.6615 5.35539 4.55112 5.43402 4.47454L6.61712 3.3222L4.98172 3.08316C4.87327 3.06731 4.77954 2.99915 4.73103 2.90087L3.99993 1.41975Z" fill="#F2994A"/>
<path d="M2.33333 5L1 3L3 2.66667L4 1L5 2.66667L7 3.33333L5.66667 4.66667L6 7L4 6L2 7L2.33333 5Z" fill="#F2994A"/>
</svg>
